<svg fill="white" preserveAspectRatio="xMidYMid meet" data-bbox="13.975 31.035 160.001 153.002" viewBox="13.975 31.035 160.001 153.002" height="200" width="200" xmlns="http://www.w3.org/2000/svg" data-type="color" role="presentation" aria-hidden="true" aria-labelledby="svgcid--d3fstb2926dp"><defs><style></style></defs><title id="svgcid--d3fstb2926dp"></title>
    <g>
        <path  d="M172.092 46.718h-44.019V32.919a1.884 1.884 0 0 0-3.768 0v13.799h-29.05V32.919a1.884 1.884 0 0 0-3.768 0v13.799H62.84V32.919a1.884 1.884 0 0 0-3.768 0v13.799H15.859a1.885 1.885 0 0 0-1.884 1.882v133.555c0 1.038.844 1.882 1.884 1.882h156.233a1.885 1.885 0 0 0 1.884-1.882V48.6a1.886 1.886 0 0 0-1.884-1.882zM126.189 65.47a1.885 1.885 0 0 0 1.884-1.882v-4.551a5.613 5.613 0 0 1 3.301 3.091 5.63 5.63 0 0 1-2.972 7.39 5.64 5.64 0 0 1-7.398-2.969 5.63 5.63 0 0 1 2.973-7.39c.109-.046.219-.082.329-.121v4.551a1.882 1.882 0 0 0 1.883 1.881zm-32.818 0a1.885 1.885 0 0 0 1.884-1.882v-4.551a5.615 5.615 0 0 1 3.302 3.091 5.629 5.629 0 0 1-2.972 7.39 5.638 5.638 0 0 1-7.397-2.969 5.63 5.63 0 0 1 2.971-7.39c.109-.046.219-.082.329-.121v4.551c0 1.038.844 1.881 1.883 1.881zm-32.415 0a1.885 1.885 0 0 0 1.884-1.882v-4.551a5.612 5.612 0 0 1 3.302 3.091 5.63 5.63 0 0 1-2.972 7.39 5.64 5.64 0 0 1-7.398-2.969 5.63 5.63 0 0 1 2.973-7.39c.108-.046.218-.082.328-.121v4.55c0 1.039.844 1.882 1.883 1.882zM17.742 180.274V96.168h152.466v84.106H17.742z" fill="white" data-color="1"></path>
        <path d="M104.155 116.709c-4.126-.369-7.565 1.524-9.984 4.782a12.105 12.105 0 0 0-1.211 1.613 12.07 12.07 0 0 0-1.247-1.585c-2.596-2.85-5.97-5.018-10.09-4.557-5.009.561-9.121 4.732-9.462 9.786-.422 6.259 5.742 11.436 9.74 15.432l10.562 10.276.771.882.066-.067.067.066.752-.899 10.327-10.51c3.906-4.085 9.952-9.4 9.39-15.647-.456-5.046-4.661-9.123-9.681-9.572z" fill="white" data-color="1"></path>
    </g>
</svg>