<?xml version="1.0" encoding="utf-8"?>
<!-- Generator: Adobe Illustrator 25.3.0, SVG Export Plug-In . SVG Version: 6.00 Build 0)  -->
<svg version="1.1" id="Capa_1" xmlns="http://www.w3.org/2000/svg" xmlns:xlink="http://www.w3.org/1999/xlink" x="0px" y="0px"
	 viewBox="0 0 484.9 512" style="enable-background:new 0 0 484.9 512;" xml:space="preserve">
<g>
	<path fill='white' d="M463.7,123.3H273.2c18.7-8.7,37.2-17.9,55.3-28.4c6.6-3.9,13.2-8,19.6-12.7c3.2-2.3,6.4-4.8,9.5-7.5c3.1-2.8,6.2-5.6,9-9.5
		c0.7-1,1.4-1.8,2.1-3.1l1-1.8c0.3-0.6,0.6-1.1,1-2.2c0.3-0.9,0.6-1.9,0.9-2.9l0.3-1.5c0.1-0.5,0.1-0.5,0.1-0.8l0.2-1.4l0-0.4l0-0.2
		c0-2.6,0-0.8,0-1.4l0-0.1l-0.1-1c-0.4-2.5-0.6-5.3-1.5-7.5l-1.2-3.6c-0.4-1.2-1-2.2-1.6-3.3c-4.5-8.6-10.9-15.1-18-20.3
		c-7.1-5.2-15-9.2-23.7-11.6l-3.3-0.9l-3.4-0.6c-1.2-0.2-2.3-0.4-3.5-0.5l-3.6-0.1c-2.4-0.2-4.9,0.1-7.5,0.4l-1.9,0.2
		c-0.7,0.1-1.5,0.4-2.3,0.6c-1.5,0.4-3,0.9-4.5,1.4L295,3.2l-0.6,0.3l-1.3,0.6l-1.3,0.6l-0.6,0.3L291,5.2l-0.1,0l-1.1,0.6l-0.3,0.2
		c-1.8,1.3-3.8,2.6-5.5,4.1c-1.7,1.4-3.4,2.9-4.9,4.5c-1.6,1.5-3.1,3.1-4.5,4.8c-5.6,6.5-10.1,13.5-14,20.7
		c-7.6,14.4-12.7,29.4-16.5,44.5c-0.6,2.6-1.2,5.2-1.8,7.8c-0.5-2.6-1.1-5.2-1.7-7.8c-3.7-15.1-8.8-30.1-16.3-44.5
		c-3.8-7.2-8.3-14.2-14-20.7c-1.4-1.6-2.9-3.2-4.5-4.8c-1.5-1.6-3.2-3-4.9-4.5c-1.6-1.5-3.6-2.7-5.5-4.1l-0.4-0.2
		c0.9,0.5-1.3-0.8-1.1-0.7l-0.1,0L193.8,5l-0.6-0.3l-1.3-0.6l-1.3-0.6L190,3.1c-0.2-0.1-0.7-0.3-1-0.4c-1.5-0.5-3-1-4.5-1.4
		c-0.8-0.2-1.6-0.4-2.3-0.6l-1.9-0.2c-2.5-0.3-5.1-0.6-7.5-0.4l-3.6,0.2c-1.2,0.1-2.3,0.3-3.5,0.5l-3.4,0.6l-3.3,0.9
		c-8.7,2.5-16.6,6.4-23.7,11.6c-7,5.2-13.5,11.8-17.9,20.3c-0.5,1.1-1.2,2.1-1.6,3.3l-1.2,3.6c-0.9,2.3-1.1,5-1.5,7.5l-0.1,1l0,0.2
		c0-0.2,0,2.5,0,1.4l0,0.1l0,0.4L113,53c0,0.3,0,0.4,0.1,0.8l0.3,1.5c0.2,1,0.5,1.9,0.9,2.9c0.2,0.4,0.4,1,0.5,1.3l0.5,0.9l1,1.8
		c0.7,1.2,1.4,2.1,2.1,3.1c2.9,3.9,5.9,6.7,9,9.5c3.1,2.7,6.3,5.2,9.5,7.4c6.4,4.6,13,8.7,19.6,12.6c18.2,10.6,36.9,19.9,55.7,28.6
		H21.2C9.5,123.3,0,132.8,0,144.5V198c0,11.7,9.5,21.2,21.2,21.2h0.4v269.9c0,12.6,10.3,22.9,22.9,22.9h394.2
		c12.6,0,22.9-10.3,22.9-22.9V219.2h2.1c11.7,0,21.2-9.5,21.2-21.2v-53.5C484.9,132.8,475.4,123.3,463.7,123.3z M262.3,90.1
		c5.1-13.7,10.9-27,17.9-39.1c3.5-6,7.4-11.6,11.7-16.4c1.1-1.2,2.2-2.4,3.3-3.5c1.1-1.2,2.3-2.1,3.4-3.1c1.1-1.1,2.4-1.8,3.5-2.7
		l0.2-0.1l1.3-0.7l1.3-0.7l0.6-0.3c0.2-0.1,0.2,0,0.3,0c0.3,0,0.6,0,0.9-0.1l0.4-0.2l0.9-0.1c1.2-0.1,2.4-0.4,3.8-0.3l2,0l2.1,0.3
		l2.1,0.3l2.2,0.5c5.9,1.4,11.8,4,17.1,7.4c5.3,3.4,9.9,7.7,12.8,12.3c0.3,0.6,0.8,1.1,1.1,1.7l0.7,1.7c0.7,1.2,0.7,2.3,1.1,3.5
		l0.1,0.4l0,0.8c0,0.2,0,0.6,0,0.6c0,0-0.1-0.1-0.1-0.1c0,0,0,0,0,0l-0.1,0.2l-0.3,0.7c-0.1,0.5-0.6,1.1-0.9,1.7
		c-1.4,2.4-3.6,5-5.9,7.4c-2.4,2.5-4.9,4.9-7.7,7.3c-5.4,4.8-11.2,9.3-17.2,13.8c-19.5,14.3-40.3,27.5-61.5,39.8h-8.1
		C254.6,112.1,258.3,101,262.3,90.1z M164.1,83.4c-5.9-4.4-11.8-9-17.2-13.7c-2.7-2.4-5.3-4.8-7.7-7.3c-2.3-2.5-4.5-5-5.9-7.4
		c-0.3-0.6-0.8-1.2-0.9-1.7l-0.3-0.7c0-0.1-0.1-0.2-0.1-0.2c0,0,0,0,0,0.1c0,0,0,0.1-0.1,0.1c0,0.1,0-0.4,0-0.6l0-0.6
		c0.1,0.1,0.1,0.1,0,0l0-0.1c0,0,0,0,0,0l0,0l0.1-0.4c0.4-1.1,0.4-2.3,1-3.4c0.5-1.2,0.9-2.3,1.8-3.5c2.9-4.6,7.5-9,12.7-12.4
		c5.3-3.4,11.2-6,17.1-7.4l2.2-0.5l2.2-0.3l2.1-0.3l2,0c1.4-0.1,2.6,0.1,3.8,0.3l0.9,0.1c0.2,0.1,0.3,0.1,0.5,0.2
		c0.3,0.1,0.6,0.1,0.9,0.1c0.1,0,0.1,0,0.3,0l0.6,0.3l1.3,0.7l1.3,0.7l0.2,0.1c1.2,0.9,2.4,1.6,3.5,2.7c1.2,1,2.4,2,3.5,3.1
		c1.2,1.1,2.2,2.2,3.3,3.5c4.3,4.8,8.2,10.5,11.8,16.4c7.1,12,12.8,25.4,17.8,39.1c3.9,10.8,7.5,21.9,10.6,33.2h-7.3
		C204.6,110.9,183.7,97.7,164.1,83.4z M21.2,204.6c-3.7,0-6.7-3-6.7-6.7v-53.5c0-3.7,3-6.7,6.7-6.7h186.3v66.8H21.6H21.2z
		 M36.2,489.1V219.2h171.3v278.2h-163C39.9,497.4,36.2,493.7,36.2,489.1z M447.1,489.1c0,4.6-3.7,8.3-8.3,8.3H276.6V219.2h170.5
		V489.1z M470.4,198c0,3.7-3,6.7-6.7,6.7h-2.1h-185v-66.8h187.1c3.7,0,6.7,3,6.7,6.7V198z"/>
	<path d="M353.1,52.1c0,0,0,0.1,0,0.2L353.1,52.1C353.2,52,353.1,52.1,353.1,52.1z"/>
	<path d="M131.9,52.3c0-0.1,0-0.1,0-0.1C131.8,52,131.9,52.1,131.9,52.3z"/>
</g>
</svg>
