<svg preserveAspectRatio="xMidYMid meet" data-bbox="35.5 20 129 160" viewBox="35.5 20 129 160" height="200" width="200" xmlns="http://www.w3.org/2000/svg" data-type="color" role="presentation" aria-hidden="true" aria-labelledby="svgcid--1pv2ymnvx0xb"><defs><style>#comp-lgxttf6j svg [data-color="1"] {fill: #E0E2DB;}</style></defs><title id="svgcid--1pv2ymnvx0xb"></title>
    <g>
        <path d="M128.552 80.034c2.186-1.275 2.276-13.204 2.276-13.204l-10.727.686c2.474 3.249-.408 11.382-.408 11.382l8.859 1.136z" fill="white" data-color="1"></path>
        <path d="M97.41 54.126c-.176.939.155 2.573 4.303 6.912l.235.243-4.48-.56c-.057 6.791.266 10.88.266 10.88l9.471-.632-.512-5.184.226.199 8.114-10.708-1.694-.104c-2.932-.18-6.476-5.327-7.594-7.296l-.557-.98-7.722 6.927-.056.303zm7.34-4.394a30.86 30.86 0 0 0 2.143 2.957c1.685 2.042 3.301 3.366 4.824 3.955l-5.06 6.678-.226-.206-.127-1.29-1.434-.179c-3.096-3.005-5.437-5.845-5.663-6.942l5.543-4.973z" fill="white" data-color="1"></path>
        <path d="M84.3 100.628l.279.131a2.29 2.29 0 0 0 1.011.208c1.106 0 3.022-.555 6.75-2.642 2.753-1.541 5.179-3.186 5.281-3.255l.807-.549-8.308-10.559-.526 1.616c-.911 2.797-6.776 4.939-8.958 5.528l-1.088.294 4.752 9.228zm1.274-9.423c2.397-1.12 4.083-2.354 5.034-3.682l5.18 6.584c-4.376 2.884-8.745 5.058-10.138 5.058-.021 0-.042 0-.061-.002l-3.412-6.625a30.68 30.68 0 0 0 3.397-1.333z" fill="white" data-color="1"></path>
        <path d="M141.225 48.398c.21.099.466.145.758.145 2.431 0 7.363-3.157 9.544-4.639l.638-.434-6.562-8.341-.416 1.277c-.72 2.21-5.353 3.902-7.077 4.367l-.859.232 3.754 7.289.22.104zm.786-7.548c1.894-.885 3.225-1.859 3.977-2.909l4.092 5.201c-3.508 2.312-7.001 4.05-8.056 3.994l-2.695-5.233a24.367 24.367 0 0 0 2.682-1.053z" fill="white" data-color="1"></path>
        <path fill="white" d="M80.584 60.25l1.049 1.891.86-1.984 2.12-.415-1.618-1.433.261-2.148-1.861 1.099-1.958-.913.468 2.113-1.471 1.583 2.15.207z" data-color="1"></path>
        <path fill="white" d="M137.328 81.951l1.05 1.892.86-1.985 2.12-.415-1.618-1.433.261-2.148-1.861 1.099-1.958-.913.468 2.112-1.472 1.585 2.15.206z" data-color="1"></path>
        <path fill="white" d="M38.992 83.038l-1.336 1.699-2.156-.139 1.201 1.799-.798 2.01 2.078-.588 1.662 1.381.084-2.162 1.825-1.156-2.026-.748-.534-2.096z" data-color="1"></path>
        <path d="M103.842 88.855l1.313 2.368 1.078-2.485 2.655-.52-2.027-1.794.327-2.69-2.33 1.376-2.452-1.143.586 2.645-1.843 1.983 2.693.26zm.034-3.055l1.04.485.988-.583-.139 1.14.859.761-1.125.22-.457 1.054-.557-1.004-1.141-.11.781-.841-.249-1.122z" fill="white" data-color="1"></path>
        <path d="M60.774 97.964l2.379 1.289-.426-2.675 1.959-1.868-2.672-.421-1.169-2.443-1.225 2.415-2.681.358 1.914 1.914-.489 2.665 2.41-1.234zm-.475-2.745l.52-1.024.496 1.036 1.133.178-.831.792.18 1.135-1.009-.547-1.021.523.207-1.13-.812-.812 1.137-.151z" fill="white" data-color="1"></path>
        <path d="M79.106 106.758s5.392 2.494-.549 7.102l10.639 4.46s3.021-5.012.529-7.422l-10.619-4.14z" fill="white" data-color="1"></path>
        <path d="M60.157 60.843l10.15 3.609 1.508-7.478-8.408-7.411c1.243 6.167-3.25 11.28-3.25 11.28z" fill="white" data-color="1"></path>
        <path d="M98.343 24.052L90.668 20c-2.238 6.389-3.261 10.357-3.261 10.357l8.812 2.63 2.124-8.935z" fill="white" data-color="1"></path>
        <path d="M46.171 67.984l1.144-.224a2.026 2.026 0 0 1 2.379 1.556 3.312 3.312 0 0 0 1.541 2.136c.792.475 1.718.6 2.607.353a2.439 2.439 0 0 1 2.896 1.36l1.411 3.144 2.639-4.619-1.024-2.282a3.729 3.729 0 0 0-4.427-2.08 2.017 2.017 0 0 1-1.592-.215 2.022 2.022 0 0 1-.941-1.304 3.318 3.318 0 0 0-3.895-2.548l-1.144.224a2.02 2.02 0 0 1-1.557-.329 2.025 2.025 0 0 1-.846-1.351l-1.169-3.885-2.728 4.776.782 2.584a3.312 3.312 0 0 0 1.377 2.166 3.294 3.294 0 0 0 2.547.538zm-3.304-5.129l.955-1.672.264.873a3.312 3.312 0 0 0 1.377 2.166 3.307 3.307 0 0 0 2.549.539l1.144-.224a2.025 2.025 0 0 1 2.379 1.556c.202.902.749 1.66 1.541 2.135s1.718.6 2.607.353a2.44 2.44 0 0 1 2.896 1.36l.753 1.678-1.045 1.829-.367-.817a3.728 3.728 0 0 0-4.427-2.08 2.016 2.016 0 0 1-1.592-.215 2.018 2.018 0 0 1-.941-1.305 3.32 3.32 0 0 0-3.895-2.548l-1.144.224c-.548.107-1.1-.01-1.558-.329a2.024 2.024 0 0 1-.845-1.351l-.651-2.172z" fill="white" data-color="1"></path>
        <path d="M154.713 56.815l-3.696.299-1.129 1.853a3.11 3.11 0 0 0 .652 3.998 2.693 2.693 0 0 1 .237 3.893 2.693 2.693 0 0 0 .082 3.752l.831.818a2.694 2.694 0 0 1-.034 3.87l-1.538 1.92 3.696-.299L155.35 75a2.693 2.693 0 0 0 .034-3.87l-.831-.818a2.693 2.693 0 0 1-.082-3.752 2.693 2.693 0 0 0-.237-3.893 3.113 3.113 0 0 1-.652-3.998l1.131-1.854z" fill="white" data-color="1"></path>
        <path d="M63.815 120.23a2.693 2.693 0 0 1-.082-3.752 2.693 2.693 0 0 0-.237-3.893 3.113 3.113 0 0 1-.652-3.998l1.129-1.853-3.696.299-1.129 1.853a3.11 3.11 0 0 0 .652 3.998 2.693 2.693 0 0 1 .237 3.893 2.693 2.693 0 0 0 .082 3.752l.831.818a2.694 2.694 0 0 1-.034 3.87l-1.538 1.92 3.696-.299 1.538-1.92a2.693 2.693 0 0 0 .034-3.87l-.831-.818z" fill="white" data-color="1"></path>
        <path d="M82.217 77.886a1.699 1.699 0 0 0 1.585-1.805 1.698 1.698 0 1 0-3.387.217c.06.937.866 1.648 1.802 1.588z" fill="white" data-color="1"></path>
        <path d="M113.457 119.174a1.699 1.699 0 0 0 1.585-1.805 1.698 1.698 0 1 0-3.388.217 1.7 1.7 0 0 0 1.803 1.588z" fill="white" data-color="1"></path>
        <path d="M133.158 54.473a1.699 1.699 0 0 0 1.586-1.805 1.698 1.698 0 1 0-3.387.217 1.697 1.697 0 0 0 1.801 1.588z" fill="white" data-color="1"></path>
        <path d="M92.907 103.321a1.7 1.7 0 0 0 .216 3.393 1.7 1.7 0 0 0-.216-3.393z" fill="white" data-color="1"></path>
        <path d="M116.461 39.308a2.222 2.222 0 0 0 2.214-2.362 2.222 2.222 0 0 0-2.353-2.074 2.22 2.22 0 0 0 .139 4.436zm-.074-3.398c.026-.002.051-.002.076-.002a1.181 1.181 0 0 1 .074 2.358 1.176 1.176 0 0 1-1.251-1.102 1.182 1.182 0 0 1 1.101-1.254z" fill="white" data-color="1"></path>
        <path d="M115.615 92.915a2.206 2.206 0 0 0-.548 1.608c.038.592.303 1.134.748 1.525a2.195 2.195 0 0 0 1.605.548 2.202 2.202 0 0 0 1.523-.749 2.206 2.206 0 0 0 .548-1.608 2.206 2.206 0 0 0-.748-1.525 2.2 2.2 0 0 0-1.605-.549 2.207 2.207 0 0 0-1.523.75zm1.665.286c.286 0 .56.103.777.294.236.208.377.496.397.811.02.315-.083.618-.291.855s-.495.378-.809.398a1.166 1.166 0 0 1-.854-.292 1.173 1.173 0 0 1-.397-.811 1.175 1.175 0 0 1 1.1-1.253l.077-.002z" fill="white" data-color="1"></path>
        <path d="M58.151 85.715c-6.439-3.588-14.489-1.408-14.828-1.313l.512 1.845c.076-.021 7.625-2.068 13.387 1.142l.929-1.674z" fill="white" data-color="1"></path>
        <path d="M110.326 107.859c-3.862-3.97-12.429-4.04-12.792-4.041l-.006 1.82c.082 0 8.168.07 11.496 3.491l1.302-1.27z" fill="white" data-color="1"></path>
        <path d="M164.5 180l-14.451-83.219-.093.016a2.833 2.833 0 0 0-.389-1.333c-1.237-2.082-4.941-2.181-11.011-.294a62.992 62.992 0 0 0-5.131 1.866c-.257-3.833-.062-7.91 1.481-9.667l-1.364-1.202c-1.645 1.873-2.296 5.551-1.934 10.934.015.229.032.457.051.682a105.107 105.107 0 0 0-8.4 4.153l-.46-.243-.215.618a121.203 121.203 0 0 0-3.157 1.818c-6.812 4.06-12.844 8.524-16.985 12.567-4.55 4.444-6.23 7.752-4.994 9.834.237.399.566.724.984.978l-.059.075L164.5 180zm-54.629-45.623l-7.854-6.225c1.717-.085 3.864-.526 6.441-1.327a56.97 56.97 0 0 0 2.636-.898c.174 1.376.491 5.411-1.223 8.45zm11.045 8.755l-5.607-4.444c3.104-7.103 3.16-13.978 3.107-15.88a112.379 112.379 0 0 0 5.979-3.103c.259 2.456 1.18 14.124-3.479 23.427zm5.068 4.017l.411.288c5.748-10.364 5.62-28.059 5.501-32.262 1.894-1.238 3.7-2.494 5.388-3.75.327 1.769 3.555 20.803-4.935 40.769l-6.365-5.045zm34.686 21.416l1.224 7.049-3.115-2.469c.892-1.941 1.491-3.436 1.891-4.58zm-2.231-12.847c-.76 3.613-2.368 9.407-5.338 12.925l-4.731-3.75c4.924-11.154 6.87-18.771 7.544-23.718l2.525 14.543zm-7.392-42.568c.621 10.891.36 31.296-8.105 47.441l-7.074-5.608 2.027 1.424c9.639-19.94 6.703-46.796 6.215-50.665.155-.148.313-.296.463-.443 1.931-1.885 3.343-3.566 4.236-5.036l2.238 12.887zM103.709 118c4.042-3.947 9.954-8.318 16.646-12.307.451-.269.902-.533 1.352-.793-1.481 4.482-2.169 7.151-2.169 7.151l8.812 2.63 2.123-8.936-5.28-2.788a101.693 101.693 0 0 1 6.654-3.268c.309 2.673.722 4.658.745 4.765l1.778-.375a53.554 53.554 0 0 1-.781-5.144 62.294 62.294 0 0 1 5.506-2.027c2.936-.913 5.063-1.256 6.51-1.256 1.383 0 2.146.313 2.401.743 1.316 2.215-6.168 10.86-21.347 19.907-6.693 3.989-13.347 7.109-18.739 8.785-5.741 1.784-8.389 1.392-8.911.513-.523-.879.395-3.396 4.7-7.6z" fill="white" data-color="1"></path>
    </g>
</svg>