<svg preserveAspectRatio="xMidYMid meet" data-bbox="43 19.955 114 160.043" viewBox="43 19.955 114 160.043" height="200" width="200" xmlns="http://www.w3.org/2000/svg" data-type="color" role="presentation" aria-hidden="true"><defs><style>#comp-lgxttf6a svg [data-color="1"] {fill: #FFFFFF;}</style></defs>
    <g>
        <path d="m156.402 121.259-18.841-9.796V83.246a1.12 1.12 0 0 0-.301-.761l-36.153-38.523c0-.007.004-.013.004-.02V32.02h6.807a1.111 1.111 0 0 0 0-2.224h-6.807v-8.683a1.111 1.111 0 1 0-2.22 0v8.683h-6.807a1.111 1.111 0 0 0 0 2.224h6.807v11.922c0 .007.004.013.004.02L62.741 82.484a1.122 1.122 0 0 0-.301.761v28.443l-18.832 9.564c-.373.19-.608.573-.608.991v56.643c0 .614.497 1.112 1.11 1.112h111.78a1.11 1.11 0 0 0 1.11-1.112v-56.643a1.11 1.11 0 0 0-.598-.984zM100 46.03l35.339 37.657v94.089H112.76v-29.091c0-6.915-5.62-12.542-12.525-12.542s-12.523 5.626-12.523 12.542v29.091H64.661V83.687L100 46.03zm10.54 131.746H89.933v-29.091c0-5.69 4.62-10.318 10.302-10.318 5.682 0 10.304 4.627 10.304 10.318v29.091zm-65.319-54.849 17.219-8.745v63.594H45.221v-54.849zm109.558 54.849H137.56v-63.809l17.219 8.953v54.856z" fill="white" data-color="1"></path>
        <path d="M100 101.821c6.39 0 11.59-5.208 11.59-11.607s-5.2-11.607-11.59-11.607-11.59 5.208-11.59 11.607 5.2 11.607 11.59 11.607zm0-20.99c5.166 0 9.369 4.209 9.369 9.383s-4.203 9.383-9.369 9.383-9.369-4.209-9.369-9.383 4.203-9.383 9.369-9.383z" fill="white" data-color="1"></path>
    </g>
</svg>