<svg preserveAspectRatio="xMidYMid meet" data-bbox="20.001 40.5 159.999 119.003" viewBox="20.001 40.5 159.999 119.003" height="200" width="200" xmlns="http://www.w3.org/2000/svg" data-type="color" role="presentation" aria-hidden="true" aria-labelledby="svgcid--kb6xhj-801m8z"><defs><style>#comp-lgxttf7l6 svg [data-color="1"] {fill: #0B5351;}</style></defs><title id="svgcid--kb6xhj-801m8z"></title>
    <g>
        <path d="m180 42.431-41.087 32.948-.886-3.15L177.594 40.5H67.522l33.626 24.087-3.723 1.04-32.49-23.273v32.35L21.103 86.948a1.502 1.502 0 0 0-1.047 1.852l19.569 69.602a1.502 1.502 0 0 0 1.858 1.044l110.797-30.951c.388-.107.714-.363.912-.712.194-.345.243-.757.135-1.143l-3.896-13.855H180V42.431zM42.125 156.142 23.37 89.439 131.256 59.3l18.758 66.703-107.889 30.139z" fill="#2F6D6B" data-color="1"></path>
        <path d="M106.374 83.576a1.519 1.519 0 0 0-2.09.432l-8.273 12.567-.812-2.942a1.517 1.517 0 0 0-1.854-1.054L67.239 99.73a1.502 1.502 0 0 0-.912.708 1.49 1.49 0 0 0-.146 1.14l7.178 26.021a1.511 1.511 0 0 0 1.855 1.054l26.106-7.151c.388-.107.714-.359.912-.708a1.49 1.49 0 0 0 .146-1.14l-5.301-19.215 9.73-14.779a1.503 1.503 0 0 0-.433-2.084zm-7.307 35.425-23.198 6.353-6.377-23.122 23.198-6.353 1.116 4.046-9.046 13.742-8.921-5.078a1.51 1.51 0 0 0-2.059.56 1.502 1.502 0 0 0 .561 2.052l10.152 5.78c.236.135.492.197.749.197.492 0 .974-.238 1.262-.677l8.368-12.711 4.195 15.211z" fill="#2F6D6B" data-color="1"></path>
    </g>
</svg>