<svg preserveAspectRatio="xMidYMid meet" data-bbox="37 41 126 118" fill='#000000' viewBox="37 41 126 118" height="200" width="200" xmlns="http://www.w3.org/2000/svg" data-type="color" role="presentation" aria-hidden="true" aria-labelledby="svgcid-kmbb0bh6kli7"><defs><style></style></defs><title id="svgcid-kmbb0bh6kli7"></title>
    <g>
        <path  d="M58.492 159c-.979 0-1.956-.28-2.761-1.081-2.325-2.315-.323-6.175.336-7.443 3.212-6.194 5.142-12.722 5.878-19.907C46.326 121.154 37.036 106.435 37 90.903c-.026-11.392 4.653-22.111 13.53-30.999C62.53 47.89 80.523 41 99.892 41c34.735 0 63.046 22.381 63.108 49.89.026 11.392-4.653 22.111-13.533 30.999-11.997 12.014-29.99 18.904-49.36 18.904-3.235 0-6.516-.218-9.998-.666-7.308 6.006-16.457 11.895-27.214 17.516-.781.408-2.598 1.357-4.403 1.357zm41.4-112.756c-17.985 0-34.622 6.329-45.645 17.363-7.87 7.881-12.02 17.315-11.997 27.282.033 14.106 8.913 27.555 23.756 35.976l1.448.822-.128 1.658c-.654 8.529-2.804 16.216-6.575 23.498 10.738-5.631 19.78-11.509 26.878-17.476l.897-.754 1.159.164c3.671.519 7.08.771 10.423.771 17.985 0 34.622-6.329 45.645-17.363 7.87-7.881 12.02-17.316 11.997-27.282-.056-24.626-26.012-44.659-57.858-44.659z" fill="black" data-color="1"></path>
        <path d="M116.414 124.911c-2.256 0-4.319-.666-5.878-1.935-1.715-1.396-2.661-3.39-2.661-5.617 0-4.757 4.378-9.389 9.969-10.544 3.202-.661 6.25-.05 8.37 1.675 1.715 1.396 2.661 3.39 2.661 5.617 0 4.759-4.378 9.39-9.969 10.544-.846.174-1.682.26-2.492.26zm3.927-13.111c-.459 0-.941.05-1.436.152-3.407.703-5.781 3.415-5.781 5.407 0 .647.238 1.154.725 1.551.879.716 2.374.939 3.994.604 3.407-.703 5.781-3.413 5.781-5.407 0-.647-.238-1.154-.725-1.551-.61-.496-1.517-.756-2.558-.756z" fill="black" data-color="1"></path>
        <path d="M128.875 114.422h-5.25V77.711c0-1.241.872-2.312 2.087-2.566a2.62 2.62 0 0 1 2.943 1.513c1.943 4.43 4.122 5.888 6.429 7.434 4.05 2.712 6.916 5.346 6.916 14.596h-5.25c0-7.168-1.728-8.324-4.589-10.24-1.023-.684-2.146-1.435-3.286-2.461v28.435z" fill="black" data-color="1"></path>
        <path d="M69.164 114.422c-2.256 0-4.319-.666-5.878-1.935-1.715-1.396-2.661-3.39-2.661-5.617 0-4.757 4.378-9.389 9.969-10.544 3.202-.659 6.25-.049 8.37 1.675 1.715 1.396 2.661 3.39 2.661 5.617 0 4.759-4.378 9.39-9.969 10.544-.846.174-1.682.26-2.492.26zm3.927-13.111c-.459 0-.941.05-1.436.152-3.407.703-5.781 3.415-5.781 5.407 0 .647.238 1.154.725 1.551.877.716 2.379.937 3.994.604 3.407-.703 5.781-3.413 5.781-5.407 0-.647-.238-1.154-.725-1.551-.61-.496-1.517-.756-2.558-.756z" fill="black" data-color="1"></path>
        <path d="M98.039 103.933c-2.256 0-4.319-.666-5.878-1.935-1.715-1.396-2.661-3.39-2.661-5.617 0-4.757 4.378-9.389 9.969-10.544 3.199-.657 6.25-.05 8.37 1.675 1.715 1.396 2.661 3.39 2.661 5.617 0 4.759-4.378 9.39-9.969 10.544-.846.175-1.682.26-2.492.26zm3.927-13.111c-.459 0-.941.05-1.436.152-3.407.703-5.781 3.415-5.781 5.407 0 .647.238 1.154.725 1.551.879.717 2.376.94 3.994.604 3.407-.703 5.781-3.413 5.781-5.407 0-.647-.238-1.154-.725-1.551-.61-.496-1.517-.756-2.558-.756z" fill="black" data-color="1"></path>
        <path d="M81.625 103.933h-5.25V67.222c0-1.102.69-2.087 1.728-2.465l28.875-10.489a2.627 2.627 0 0 1 3.522 2.465v36.711h-5.25V60.477l-23.625 8.581v34.875z" fill="#583B6B" data-color="1"></path>
        <path fill="black" d="M106.976 64.743l1.794 4.93-28.867 10.509-1.795-4.93 28.868-10.509z" data-color="1"></path>
    </g>
</svg>

