<svg height="100%" width="100%"><defs><style>#comp-lgxttf6y svg [data-color="1"] {fill: #000000;}</style></defs>
              <defs><filter x="-6" y="-6" width="49" height="69" filterUnits="userSpaceOnUse" id="svgcid--5iq2mt-dn8g9m" color-interpolation-filters="sRGB">
    <feComponentTransfer result="srcRGB"></feComponentTransfer>
    <feGaussianBlur stdDeviation="2" in="SourceAlpha"></feGaussianBlur>
<feOffset dx="1" dy="1"></feOffset>
<feColorMatrix type="matrix" values="0 0 0 0 0
0 0 0 0 0
0 0 0 0 0
0 0 0 0.6 0"></feColorMatrix>
<feMerge>
    <feMergeNode></feMergeNode>
    <feMergeNode in="SourceGraphic"></feMergeNode>
</feMerge>
    <feComponentTransfer></feComponentTransfer>
</filter></defs>
              <g filter="url(#svgcid--5iq2mt-dn8g9m)">
                  <svg preserveAspectRatio="xMidYMid meet" data-bbox="42.5 10 115 180" viewBox="42.5 10 115 180" height="100%" width="100%" xmlns="http://www.w3.org/2000/svg" data-type="color" role="presentation" aria-hidden="true" aria-labelledby="svgcid--4q09jc-wr5jem"><title id="svgcid--4q09jc-wr5jem"></title>
    <g>
        <path d="M157.458 178.198c-4.551-23.109-9.268-47.125-12.247-62.641-2.317-12.71-5.627-23.686-9.682-32.765 0-.165-.083-.248-.083-.413-3.062-6.768-5.71-10.646-7.282-12.627 1.986-7.51 5.627-20.715 8.358-30.371 1.821-6.685 3.31-11.884 3.558-12.875 1.159-4.704.579-8.831-1.821-11.802-2.4-3.054-6.455-4.704-11.503-4.704-12.247 0-22.84 6.602-26.481 13.618C96.635 16.685 86.043 10 73.796 10c-4.8 0-8.772 1.733-11.254 4.869-2.565 3.219-3.227 7.675-2.069 12.545.579 2.393 8.358 31.857 11.668 44.484-1.986 2.806-5.875 11.307-7.365 14.443-.083.083-.166.248-.248.33-3.227 7.428-6.868 15.763-9.765 30.784-1.986 10.316-4.551 23.026-7.199 36.396-1.655 8.418-3.393 16.919-5.048 25.089-.083.578.166 1.155.745 1.403C57.163 186.616 77.354 190 99.945 190c21.267 0 41.955-3.796 56.685-10.399.662-.247.993-.825.828-1.403zM62.955 26.836c-.993-4.127-.497-7.84 1.572-10.399 1.986-2.558 5.296-3.961 9.268-3.961 12.827 0 24.164 8.088 25.239 15.021.083.578.579 1.073 1.241 1.073s1.159-.413 1.241-1.073c1.076-6.933 12.413-15.021 25.239-15.021 4.22 0 7.613 1.32 9.516 3.796 1.821 2.393 2.317 5.695 1.324 9.656-.248.908-1.655 6.19-3.476 12.792-2.731 9.739-6.372 23.026-8.358 30.619-8.11 1.568-17.626 2.476-27.722 2.476-8.358 0-16.55-.578-23.75-1.733-3.555-13.287-10.837-40.935-11.334-43.246zM50.046 154.347a3708.77 3708.77 0 0 0 7.199-36.479c2.814-14.443 6.372-22.696 9.516-29.876.083-.083.166-.165.166-.33 3.972-8.748 6.703-13.7 7.53-14.691.083-.083.166-.248.166-.33 7.117 1.073 15.144 1.651 23.336 1.651 10.344 0 20.191-.908 28.549-2.558 1.49 1.898 3.807 5.447 6.537 11.389 0 .165.083.248.083.413 4.055 8.913 7.282 19.89 9.682 32.517 2.4 12.627 5.958 30.784 9.599 49.519-14.151 5.612-33.183 8.748-52.382 8.748-20.44 0-38.976-2.889-52.382-8.088.829-3.962 1.656-7.924 2.401-11.885zm49.982 33.177c-21.846 0-41.21-3.219-54.782-9.078.662-3.219 1.324-6.437 1.903-9.739 13.654 5.199 32.356 8.088 52.878 8.088 19.364 0 38.48-3.219 52.878-8.748.662 3.219 1.241 6.437 1.903 9.656-14.397 6.272-34.258 9.821-54.78 9.821z" fill="#998675" data-color="1"></path>
    </g>
</svg>

              </g>
          </svg>